<svg xmlns="http://www.w3.org/2000/svg" xmlns:xlink="http://www.w3.org/1999/xlink" width="500" zoomAndPan="magnify" viewBox="0 0 375 374.999991" height="500" preserveAspectRatio="xMidYMid meet" version="1.0"><path stroke-linecap="butt" transform="matrix(0.53033, -0.53033, 0.53033, 0.53033, 96.513082, 189.113659)" fill="none" stroke-linejoin="miter" d="M 0.00275335 6.999453 L 92.530628 6.999453 " stroke="#000000" stroke-width="14" stroke-opacity="1" stroke-miterlimit="4"/><path stroke-linecap="butt" transform="matrix(0.53033, 0.53033, -0.53033, 0.53033, 106.549656, 184.3089)" fill="none" stroke-linejoin="miter" d="M -0.0029105 6.999745 L 163.699685 6.999745 " stroke="#000000" stroke-width="14" stroke-opacity="1" stroke-miterlimit="4"/><path stroke-linecap="butt" transform="matrix(0.53033, 0.53033, -0.53033, 0.53033, 147.706444, 142.167706)" fill="none" stroke-linejoin="miter" d="M -0.00288171 7.000789 L 85.277148 7.000789 " stroke="#000000" stroke-width="14" stroke-opacity="1" stroke-miterlimit="4"/><path stroke-linecap="butt" transform="matrix(0.53033, -0.53033, 0.53033, 0.53033, 178.080886, 187.386638)" fill="none" stroke-linejoin="miter" d="M 0.00100408 6.998567 L 83.358587 6.998567 " stroke="#000000" stroke-width="14" stroke-opacity="1" stroke-miterlimit="4"/><path stroke-linecap="butt" transform="matrix(0.53033, 0.53033, -0.53033, 0.53033, 189.056051, 96.163954)" fill="none" stroke-linejoin="miter" d="M -0.00118395 6.998799 L 157.293256 6.998799 " stroke="#000000" stroke-width="14" stroke-opacity="1" stroke-miterlimit="4"/><path stroke-linecap="butt" transform="matrix(0.53033, -0.53033, 0.53033, 0.53033, 200.198473, 248.91558)" fill="none" stroke-linejoin="miter" d="M -0.00154856 7.000366 L 133.516424 7.000366 " stroke="#000000" stroke-width="14" stroke-opacity="1" stroke-miterlimit="4"/></svg>