<svg xmlns="http://www.w3.org/2000/svg" xmlns:xlink="http://www.w3.org/1999/xlink" width="500" zoomAndPan="magnify" viewBox="0 0 375 374.999991" height="500" preserveAspectRatio="xMidYMid meet" version="1.0"><path stroke-linecap="butt" transform="matrix(0.53033, -0.53033, 0.53033, 0.53033, 58.899661, 186.305628)" fill="none" stroke-linejoin="miter" d="M -0.000266689 16.49712 L 127.105868 16.500802 " stroke="#000000" stroke-width="33" stroke-opacity="1" stroke-miterlimit="4"/><path stroke-linecap="butt" transform="matrix(0.53033, 0.53033, -0.53033, 0.53033, 79.988538, 179.702698)" fill="none" stroke-linejoin="miter" d="M 0.00016028 16.499805 L 224.874862 16.499805 " stroke="#000000" stroke-width="33" stroke-opacity="1" stroke-miterlimit="4"/><path stroke-linecap="butt" transform="matrix(0.53033, 0.53033, -0.53033, 0.53033, 136.524809, 121.818316)" fill="none" stroke-linejoin="miter" d="M 0.000589128 16.502335 L 117.140937 16.498652 " stroke="#000000" stroke-width="33" stroke-opacity="1" stroke-miterlimit="4"/><path stroke-linecap="butt" transform="matrix(0.53033, -0.53033, 0.53033, 0.53033, 170.947743, 183.933226)" fill="none" stroke-linejoin="miter" d="M 0.0010443 16.500898 L 114.508156 16.500898 " stroke="#000000" stroke-width="33" stroke-opacity="1" stroke-miterlimit="4"/><path stroke-linecap="butt" transform="matrix(0.53033, 0.53033, -0.53033, 0.53033, 193.325925, 58.618007)" fill="none" stroke-linejoin="miter" d="M -0.0023805 16.499995 L 216.070314 16.499995 " stroke="#000000" stroke-width="33" stroke-opacity="1" stroke-miterlimit="4"/><path stroke-linecap="butt" transform="matrix(0.53033, -0.53033, 0.53033, 0.53033, 201.330195, 268.454308)" fill="none" stroke-linejoin="miter" d="M 0.00284629 16.499775 L 183.408679 16.499775 " stroke="#000000" stroke-width="33" stroke-opacity="1" stroke-miterlimit="4"/></svg>